<?xml version="1.0" encoding="utf-8"?>
<!-- Generator: Adobe Illustrator 25.3.1, SVG Export Plug-In . SVG Version: 6.00 Build 0)  -->
<svg version="1.1" id="Layer_1" xmlns="http://www.w3.org/2000/svg" xmlns:xlink="http://www.w3.org/1999/xlink" x="0px" y="0px"
	 viewBox="0 0 512 512" style="enable-background:new 0 0 512 512;" xml:space="preserve">
<style type="text/css">
	.st0{clip-path:url(#SVGID_2_);}
	.st1{fill:#023B5A;}
	.st2{fill:#EA6C13;}
	.st3{fill:#E4F2FC;}
	.st4{fill:#065585;}
	.st5{fill:#0C769C;}
	.st6{fill:#11A9B7;}
</style>
<g>
	<g>
		<defs>
			<path id="SVGID_1_" d="M424.2,335c0,92.9-75.3,168.2-168.2,168.2S87.8,427.9,87.8,335c0-92.9,173.5-324.2,168.2-321.1
				C256,13.9,424.2,242.1,424.2,335z"/>
		</defs>
		<clipPath id="SVGID_2_">
			<use xlink:href="#SVGID_1_"  style="overflow:visible;"/>
		</clipPath>
		<g class="st0">
			<path class="st1" d="M425.9,335.8c0,93.9-76.1,170-170,170s-170-76.1-170-170C86,241.9,261.3,8.3,256,11.4
				C256,11.4,425.9,241.9,425.9,335.8z"/>
			<path class="st2" d="M261.4,116.7c-1.2-2.3-4.1-3.2-6.4-2c0,0,0,0,0,0l0,0c-0.8,0.4-1.5,1.1-1.9,1.9l-28.4,51.1l-11,19.8h13.8
				l10.9-19.7l18.8-33.9l18.7,33.9h13.9L261.4,116.7z"/>
			<path class="st3" d="M56.1,349.4c0,0,71.1-33.9,112.8-25.1c41.8,8.9,266.5,20.5,280.1,11.8s4.3,183.4,4.3,183.4l-211,47.3
				L86.6,534.1L56.1,349.4z"/>
			<path class="st4" d="M444.6,359.8c0,0-69.8-9.7-138.4,0.1S230.7,338,134.1,338c-74.6,0-75.4,40.6-75.4,40.6l10.2-56.4
				c0,0,15.4-33,71.3-40.9s114.6,46.6,168.4,38.9"/>
			<path class="st3" d="M63,379.4l-8.7-0.9c0.1-2,0.5-4,1-6l9.4-51.7l0.2-0.5c0.7-1.4,17.2-35.2,74.7-43.5
				c29.4-4.2,59.2,8.1,88.1,19.9c28.2,11.6,54.8,22.6,80.2,18.9l1.3,8.7c-27.8,4-56.8-7.9-84.9-19.5c-27.7-11.4-56.4-23.3-83.5-19.4
				c-49.1,7.1-65.7,34.3-67.8,38.1l-5.3,29.1c13.8-12.7,36.1-19.1,66.3-19.1c48.3,0,74.2,7.7,97,14.6s40.8,12.2,74.5,7.4
				c68.4-9.8,138.9-0.3,139.6-0.2l-1.3,8.7c-0.7-0.1-70-9.5-137.2,0.1c-35.6,5.1-55.4-0.8-78.3-7.6c-22.2-6.7-47.4-14.2-94.5-14.2
				c-54.4,0-67.1,21.7-70.1,31.6L63,379.4z"/>
			<path class="st3" d="M316.4,170.5v178H195.6v-178c0-1.4,1.2-2.6,2.6-2.6h115.6C315.2,167.9,316.4,169.1,316.4,170.5L316.4,170.5z
				"/>
			<path class="st3" d="M316.4,348.6v6.5c0,1.4-1.2,2.6-2.6,2.6H198.2c-1.4,0-2.6-1.2-2.6-2.6v-6.5H316.4z"/>
			<path class="st5" d="M435.1,430.6c0-0.1-5.6-13.1-20.1-25.8c-13.4-11.7-37.6-25.7-76.4-25.7c-38.6,0-84.2,15.3-128.4,30.1
				c-39.1,13-75.9,25.4-103.8,25.4c-12.3,0-22-2.3-29.7-7.1l-1.1-0.7L57,377.3l6.8,1.6c0.1,0,7.8,1.7,23.3,1.7
				c12.2-0.1,24.3-0.9,36.4-2.5c25.1-3.3,50.3-19,77.1-35.6c9.8-6.1,19.9-12.4,30.3-18.2c30.2-17,64.3-26,99-26
				c4.9,0,9.9,0.2,14.8,0.6c55.8,4.1,83.7,21.7,99.3,62.9c7.5,19.5-1.4,66.2-1.8,68.2l-2.3,12.3L435.1,430.6z"/>
			<path class="st3" d="M329.8,302c4.8,0,9.7,0.2,14.5,0.5c51.5,3.8,80.2,18.6,96.1,60.5c7.1,18.7-1.9,66.2-1.9,66.2
				s-22.2-53.9-100-53.9c-74,0-174.2,55.5-232.2,55.5c-10.9,0-20.2-2-27.8-6.6l-15.6-41.6c0,0,8,1.8,24.2,1.8
				c12.3-0.1,24.6-0.9,36.9-2.6c35.2-4.6,70.1-32.6,108.7-54.3C262.3,310.7,295.8,302,329.8,302 M329.8,294.4
				c-35.3,0.1-70.1,9.2-100.8,26.6c-10.4,5.9-20.6,12.2-30.4,18.3c-26.4,16.4-51.3,32-75.6,35.1c-11.9,1.6-23.9,2.4-35.9,2.5
				c-14.9,0-22.4-1.6-22.5-1.7L51,372.1l4.9,13.1l15.7,41.6l0.9,2.4l2.1,1.3c8.4,5.2,18.7,7.7,31.7,7.7c28.5,0,65.7-12.4,105-25.6
				c43.9-14.7,89.2-29.8,127.2-29.8c30.1,0,54.8,8.3,73.6,24.6c14.1,12.2,19.4,24.6,19.4,24.7l9.5,23.1l4.7-24.6
				c1-5,9.3-50.1,1.6-70.2c-8.5-22.6-20.6-37.9-37.8-48.2c-15.8-9.5-36.4-14.9-64.7-17.1c-5-0.4-10-0.6-15-0.6L329.8,294.4z"/>
			<path class="st2" d="M392.5,354.2l-76.2-137.5v25.1l55,99.2l4.2,7.5H137.8l57.8-104.2v-24.8l-8.9,15.9l-37.8,68.2l-28,50.6
				c-1.3,2.3-0.5,5.2,1.8,6.5c0.7,0.4,1.5,0.6,2.4,0.6h263.3c2.6,0,4.8-2.1,4.8-4.8C393.1,355.8,392.9,354.9,392.5,354.2
				L392.5,354.2z"/>
			<path class="st6" d="M429.3,459.2c-30.2,38.1-36.2-3-79.1-7.2c-55.8-5.4-119.2,39.4-200.8,35c-33.4-1.8-46.9-13.6-64.6-42.5
				c-0.9-1.5-0.5-3.4,1-4.3c0.7-0.4,1.5-0.6,2.2-0.5C241,464.7,324.3,329.5,429.3,459.2z"/>
			<path class="st3" d="M160.7,488c-3.8,0-7.6-0.1-11.4-0.3c-34.4-1.9-47.9-14.7-65.1-42.8c-0.8-1.1-0.9-2.7-0.1-3.9
				c0.8-1.4,2.4-2.1,4-1.9c61.3,10,111.7-5.8,156.1-19.8c33-10.3,64.1-20.1,94.2-17.4c33.4,3.1,62.4,21.2,91.4,56.9l0.3,0.4
				l-0.3,0.4c-18.7,23.6-28.8,17-42.8,7.9c-9-5.9-20.2-13.2-36.8-14.8c-25.9-2.5-54.1,6-83.9,15C234.9,477.3,199.8,488,160.7,488z
				 M87.4,440.3c-0.9,0-1.8,0.5-2.3,1.3c-0.5,0.8-0.4,1.8,0.1,2.5c17,27.8,30.2,40.4,64.1,42.3c43.4,2.4,82.2-9.4,116.4-19.8
				c30-9.1,58.2-17.7,84.4-15.1c17,1.7,28.3,9.1,37.4,15c14.4,9.4,23.1,15,40.9-7.2c-62.5-76.9-116.1-60.1-183.9-38.8
				c-44.6,14-95.2,29.9-156.7,19.8L87.4,440.3z"/>
			<path class="st1" d="M212.5,180.9h35.3c0.1,0,0.3,0.1,0.3,0.3v19.1c0,0.1-0.1,0.3-0.3,0.3h-35.3c-0.1,0-0.3-0.1-0.3-0.3v-19.1
				C212.2,181,212.3,180.9,212.5,180.9z"/>
			<path class="st1" d="M264.2,180.9h35.3c0.1,0,0.3,0.1,0.3,0.3v19.1c0,0.1-0.1,0.3-0.3,0.3h-35.3c-0.1,0-0.3-0.1-0.3-0.3v-19.1
				C264,181,264.1,180.9,264.2,180.9z"/>
			<path class="st1" d="M212.5,216.4h35.3c0.1,0,0.3,0.1,0.3,0.3v19.1c0,0.1-0.1,0.3-0.3,0.3h-35.3c-0.1,0-0.3-0.1-0.3-0.3v-19.1
				C212.2,216.5,212.3,216.4,212.5,216.4z"/>
			<path class="st1" d="M264.2,216.4h35.3c0.1,0,0.3,0.1,0.3,0.3v19.1c0,0.1-0.1,0.3-0.3,0.3h-35.3c-0.1,0-0.3-0.1-0.3-0.3v-19.1
				C264,216.5,264.1,216.4,264.2,216.4z"/>
			<path class="st1" d="M212.5,251.9h35.3c0.1,0,0.3,0.1,0.3,0.3v19.1c0,0.1-0.1,0.3-0.3,0.3h-35.3c-0.1,0-0.3-0.1-0.3-0.3v-19.1
				C212.2,252,212.3,251.9,212.5,251.9z"/>
			<path class="st1" d="M264.2,251.9h35.3c0.1,0,0.3,0.1,0.3,0.3v19.1c0,0.1-0.1,0.3-0.3,0.3h-35.3c-0.1,0-0.3-0.1-0.3-0.3v-19.1
				C264,252,264.1,251.9,264.2,251.9z"/>
		</g>
	</g>
	<path class="st3" d="M256.5,21.2c15,21,47.5,67.6,79.6,120.2c54.6,89.7,83.6,156.7,83.6,193.6c0,90.4-73.3,163.7-163.7,163.7
		c-43.4,0-85-17.2-115.7-47.9c-30.8-30.6-48.1-72.3-47.9-115.7c0-16.8,6.3-40.2,18.6-69.6c10.6-25.2,25.8-55,45.1-88.5
		c34.8-60.4,75.5-119.4,95.1-147.8C253.2,26,255,23.4,256.5,21.2 M256.1,3.3L256.1,3.3l0,0.1C256.1,3.4,256.1,3.3,256.1,3.3
		L256.1,3.3z M256.1,3.5c-2.3,7-173.8,237.6-173.8,331.5c0,95.9,77.8,173.7,173.7,173.7c95.9,0,173.7-77.8,173.7-173.7
		C429.7,240.3,260.7,9.8,256.1,3.5L256.1,3.5z"/>
</g>
</svg>
